 <svg  version="1.0" xmlns="http://www.w3.org/2000/svg"  width="300.000000pt" height="240.000000pt" viewBox="0 0 300.000000 240.000000"  preserveAspectRatio="xMidYMid meet">  <g transform="translate(0.000000,240.000000) scale(0.100000,-0.100000)" fill="#dc065f" stroke="none"> <path d="M1297 2305 c-236 -45 -440 -157 -608 -333 -192 -200 -294 -438 -306 -713 -14 -303 76 -563 274 -791 398 -460 1111 -512 1571 -114 269 232 405 548 389 905 -7 164 -39 290 -112 436 -64 131 -126 215 -233 316 -140 135 -305 227 -489 276 -125 32 -363 41 -486 18z"/> </g> </svg> 