<?xml version="1.0" standalone="no"?>
<!DOCTYPE svg PUBLIC "-//W3C//DTD SVG 20010904//EN"
 "http://www.w3.org/TR/2001/REC-SVG-20010904/DTD/svg10.dtd">
<svg version="1.0" xmlns="http://www.w3.org/2000/svg"
 width="258.000000pt" height="196.000000pt" viewBox="0 0 258.000000 196.000000"
 preserveAspectRatio="xMidYMid meet">
<metadata>
Created by potrace 1.10, written by Peter Selinger 2001-2011
</metadata>
<g transform="translate(0.000000,196.000000) scale(0.100000,-0.100000)"
fill="#01672e" stroke="none">
<path d="M301 1745 c-1 -120 49 -317 110 -439 105 -209 295 -401 469 -473 87
-36 90 -34 90 46 l0 70 -92 44 c-254 121 -419 325 -533 662 -37 108 -44 123
-44 90z"/>
<path d="M2306 1705 c-108 -352 -284 -581 -543 -708 l-103 -50 0 -68 c0 -80 3
-82 90 -46 225 93 458 366 533 627 30 104 50 223 45 270 -4 34 -4 33 -22 -25z"/>
<path d="M1000 872 l0 -71 48 -21 c55 -25 104 -69 137 -125 22 -36 75 -210 75
-243 0 -28 -18 0 -29 45 -27 103 -149 303 -187 303 -34 0 -3 -104 59 -193 57
-85 73 -133 92 -281 14 -118 21 -135 60 -168 25 -22 93 -23 123 -2 36 25 49
62 62 179 14 123 36 192 84 262 47 69 66 107 75 158 7 37 6 45 -7 45 -42 0
-165 -199 -193 -312 -12 -50 -34 -69 -23 -20 18 80 46 178 60 205 31 60 83
114 138 143 l56 29 0 69 c0 66 -1 68 -22 62 -187 -53 -377 -53 -580 -1 l-28 7
0 -70z"/>
<path d="M800 766 c-93 -20 -164 -73 -130 -97 23 -16 134 -2 182 22 53 26 108
67 108 80 0 12 -92 10 -160 -5z"/>
<path d="M1695 751 c59 -63 200 -108 263 -84 l24 9 -26 31 c-34 41 -101 63
-206 70 l-85 6 30 -32z"/>
</g>
</svg>
